<svg width="30" height="30" viewBox="0 0 30 30" fill="none" xmlns="http://www.w3.org/2000/svg">
<rect width="30" height="30" rx="6" fill="url(#paint0_linear_11272_29749)"/>
<path d="M14.8292 19.977C14.6508 20.0011 14.4233 20.0661 14.1554 20.1799C13.9214 20.2772 13.691 20.3828 13.4646 20.4966L13.1804 20.6428C13.162 20.661 13.1398 20.675 13.1154 20.6836C13.0574 20.7143 13.0005 20.7468 12.9446 20.7811L12.7013 20.927C12.62 20.9761 12.5388 21.0249 12.4413 21.0816C12.3569 21.131 12.2755 21.1852 12.1975 21.2441C12.1352 21.2892 12.078 21.3409 12.0267 21.3982C11.9863 21.447 11.9538 21.4957 11.9538 21.5282C11.9538 21.6016 12.0596 21.7074 12.2788 21.8532C12.49 21.9916 12.7092 22.1216 12.9288 22.2432C13.1479 22.357 13.2538 22.4141 13.2538 22.3974C14.0983 22.8282 14.675 23.0474 14.9921 23.0474C15.1379 23.0474 15.3492 22.9907 15.6338 22.8849C15.8885 22.7834 16.1404 22.6751 16.3892 22.5599L16.7058 22.4057C17.4529 22.0482 17.8838 21.7641 18.0058 21.5691C18.0379 21.4957 18.0058 21.4066 17.9 21.3011C17.7942 21.1953 17.64 21.0816 17.4208 20.9595L16.9983 20.7324C16.9413 20.6999 16.8521 20.6591 16.7383 20.6024C15.7963 20.1316 15.1704 19.9282 14.8296 19.977M13.8792 19.5061C13.9117 19.4407 13.8792 19.3595 13.7817 19.262C13.6842 19.1645 13.5458 19.0591 13.3592 18.9453C13.2213 18.8561 13.075 18.7745 12.9288 18.7016C12.8313 18.6449 12.7254 18.6041 12.62 18.5557C12.6111 18.547 12.5998 18.5412 12.5875 18.5391C11.6696 18.0761 11.0358 17.8732 10.6867 17.922C10.305 17.987 9.76084 18.2141 9.05417 18.6041C9.03538 18.6199 9.01311 18.631 8.98917 18.6366C8.95667 18.6449 8.89959 18.6774 8.81834 18.7261C8.64751 18.8236 8.46917 18.9291 8.30667 19.0345C8.22334 19.0899 8.14001 19.1441 8.05501 19.197C7.98971 19.2352 7.9341 19.2879 7.89251 19.3511C7.85167 19.4003 7.82751 19.4491 7.82751 19.4816C7.82751 19.5545 7.93292 19.6682 8.15251 19.8145C8.35542 19.9524 8.57459 20.0824 8.79417 20.1961C9.00542 20.302 9.11917 20.3503 9.12751 20.3503C9.22459 20.3995 9.34626 20.4645 9.49251 20.5374C9.63876 20.6103 9.87459 20.7082 10.1913 20.8216C10.5079 20.9353 10.7354 20.9924 10.8817 20.9924C11.0275 20.9924 11.2392 20.9353 11.5233 20.8299C11.775 20.7324 12.0192 20.6266 12.2625 20.5132C12.4658 20.4157 12.5792 20.3591 12.5875 20.3507C13.335 19.9849 13.7654 19.7007 13.8792 19.5057M22.8958 17.1016C22.9038 17.0041 22.9117 16.8657 22.9038 16.687C22.8954 16.5082 22.8629 16.2566 22.8063 15.9399C22.7492 15.6232 22.66 15.3957 22.5542 15.2657C22.4404 15.1357 22.27 14.9974 22.0263 14.827C21.8209 14.6879 21.6096 14.5578 21.3929 14.437L21.1083 14.2828C21.0679 14.2582 21.0271 14.2341 20.9783 14.2095C20.9296 14.1853 20.8242 14.1282 20.6779 14.0553C20.5467 13.9819 20.411 13.9168 20.2717 13.8603C20.1579 13.8116 20.0363 13.7711 19.9142 13.7303C19.8008 13.6978 19.7196 13.6899 19.6788 13.7141C19.6058 13.7549 19.5488 13.9011 19.5246 14.1445C19.4919 14.3814 19.4756 14.6203 19.4758 14.8595L19.4921 15.1928C19.4921 16.0861 19.5733 16.6628 19.7275 16.9145C19.8008 17.0282 19.955 17.1745 20.1904 17.3532C20.41 17.5157 20.6292 17.6616 20.8646 17.7999L21.1813 17.9707C21.2546 18.0111 21.3521 18.0682 21.4821 18.1411C21.6121 18.2141 21.7988 18.312 22.0588 18.4253C22.3188 18.5391 22.4975 18.5961 22.6029 18.5961C22.8304 18.5961 22.9279 18.0924 22.8954 17.1016M7.47834 14.2828C7.58376 14.2828 7.75417 14.2341 7.99001 14.1286C8.20784 14.0313 8.42188 13.9256 8.63167 13.812L8.89959 13.6574C9.71209 13.2024 10.1913 12.8532 10.3371 12.6011C10.4104 12.4874 10.4675 12.2845 10.5079 12.0003C10.5474 11.7449 10.5691 11.4871 10.5729 11.2286L10.5896 10.8791C10.6138 9.98572 10.5488 9.49031 10.4021 9.40906C10.3375 9.37656 10.1913 9.40906 9.94792 9.50656C9.72001 9.59572 9.49251 9.70156 9.26542 9.81489C9.04584 9.92906 8.94876 9.97739 8.95667 9.97739C8.25792 10.3349 7.77876 10.6599 7.53501 10.9441C7.29126 11.2203 7.16959 11.8295 7.16959 12.7799C7.15292 13.7711 7.25084 14.2745 7.47792 14.2828M20.8892 18.4253C19.9713 17.9628 19.3375 17.7595 18.9883 17.8082C18.8175 17.8407 18.5983 17.9136 18.3221 18.0195C18.0463 18.1328 17.8188 18.2386 17.6238 18.3445L17.3558 18.4903C17.3313 18.507 17.3071 18.5149 17.2825 18.5311C17.2267 18.5655 17.1697 18.598 17.1117 18.6286L16.86 18.7666C16.7788 18.8074 16.6975 18.8641 16.6004 18.9207C16.5176 18.9755 16.4364 19.0324 16.3567 19.0916C16.2966 19.1364 16.2396 19.1851 16.1858 19.2374C16.1371 19.2866 16.1129 19.327 16.1129 19.3595C16.1213 19.5136 16.5596 19.8145 17.4125 20.2449C17.51 20.2857 17.6317 20.3424 17.7863 20.4157C17.9404 20.4886 18.1679 20.5861 18.4846 20.6999C18.7933 20.8136 19.0208 20.8707 19.1671 20.8707C19.3129 20.8707 19.5246 20.8216 19.8088 20.7161C20.0652 20.6222 20.315 20.5108 20.5563 20.3828L20.8729 20.2286C21.6283 19.8711 22.0671 19.587 22.1729 19.392C22.2133 19.327 22.1808 19.2378 22.0588 19.132C21.945 19.0182 21.7908 18.9128 21.6121 18.807C21.4254 18.7016 21.2788 18.6203 21.1654 18.5553C21.0271 18.4903 20.9379 18.4499 20.8892 18.4253ZM10.2725 16.9066C10.3375 16.7928 10.3863 16.5899 10.4267 16.3053C10.4675 16.0211 10.4917 15.7611 10.5079 15.5336V15.1845C10.5325 14.2907 10.4675 13.7953 10.3213 13.7141C10.2563 13.6816 10.11 13.7141 9.87459 13.8116C9.64276 13.9046 9.41505 14.0076 9.19209 14.1203C8.97292 14.2341 8.87542 14.2828 8.88376 14.2828C8.17667 14.6482 7.70542 14.9811 7.46209 15.2657C7.21834 15.542 7.09626 16.1511 7.09626 17.1016C7.07209 18.0924 7.17751 18.5961 7.39709 18.6041C7.50251 18.6041 7.67334 18.5553 7.90876 18.4499C8.12659 18.3525 8.34063 18.2469 8.55042 18.1332L8.81834 17.9791C9.63084 17.5157 10.1183 17.1666 10.2725 16.9066ZM15.5767 10.3024C15.65 10.4161 15.8121 10.5624 16.0475 10.7411C16.2592 10.8953 16.4867 11.0416 16.7142 11.1799L17.0308 11.3666C17.1038 11.4074 17.2017 11.4641 17.3313 11.5374C17.4613 11.6103 17.6479 11.7078 17.9079 11.8216C18.1679 11.9353 18.3467 11.9924 18.4521 11.9757C18.6717 11.9757 18.7688 11.4803 18.7367 10.4895C18.7367 9.53114 18.6229 8.92156 18.3871 8.65364C18.2817 8.52364 18.1113 8.38572 17.8754 8.21489C17.6708 8.07026 17.4564 7.93995 17.2338 7.82489L16.9658 7.67072C16.9154 7.64677 16.8666 7.61964 16.8196 7.58947C16.7708 7.55697 16.6654 7.50822 16.5192 7.43531C16.3861 7.36807 16.2506 7.30567 16.1129 7.24822C15.9992 7.19947 15.8771 7.15906 15.7554 7.11822C15.6417 7.08572 15.5604 7.07781 15.52 7.10197C15.4467 7.13447 15.39 7.27281 15.3658 7.52447C15.3329 7.75989 15.325 8.00364 15.3329 8.24739V8.58072C15.3496 9.47406 15.4225 10.0424 15.5767 10.3024ZM18.4683 12.9749C18.3629 12.8449 18.1925 12.707 17.9488 12.5361C17.7419 12.3943 17.5307 12.259 17.3154 12.1303L17.0471 11.9841C16.9967 11.9601 16.9478 11.933 16.9008 11.9028C16.8033 11.8466 16.703 11.7951 16.6004 11.7486C16.4673 11.6814 16.3318 11.619 16.1942 11.5616C16.0768 11.5133 15.9576 11.47 15.8367 11.4316C15.7229 11.3991 15.6417 11.3911 15.6013 11.4153C15.5279 11.4478 15.4713 11.5861 15.4471 11.8378C15.4142 12.0732 15.4063 12.317 15.4142 12.5607V12.8941C15.4225 13.7874 15.5038 14.3641 15.65 14.6157C15.7229 14.7295 15.8854 14.8757 16.1208 15.0545C16.3321 15.2086 16.5596 15.3549 16.7871 15.4932L17.1038 15.6636C17.1771 15.7124 17.2746 15.7774 17.4046 15.8424C17.5342 15.9074 17.7213 16.0049 17.9813 16.1266C18.2413 16.2486 18.4196 16.3057 18.5254 16.2891C18.6067 16.2891 18.6796 16.2161 18.7204 16.0778C18.7692 15.932 18.7933 15.7611 18.8096 15.5499C18.8179 15.3386 18.8263 15.1761 18.8263 15.0707C18.8263 14.957 18.8179 14.8757 18.8096 14.8107C18.7933 13.8116 18.6796 13.2024 18.4683 12.9749ZM19.6546 12.5932C19.7275 12.707 19.89 12.8532 20.1254 13.032C20.345 13.1861 20.5642 13.3403 20.7917 13.4866L21.1083 13.6574C21.1817 13.6978 21.2792 13.7549 21.4092 13.8282C21.5388 13.9011 21.7258 13.9986 21.9858 14.112C22.2458 14.2257 22.4242 14.2828 22.53 14.2828C22.7492 14.2745 22.8467 13.7711 22.8142 12.7799C22.8142 11.8299 22.7004 11.2203 22.465 10.9441C22.3592 10.8145 22.1888 10.6761 21.945 10.5057C21.7396 10.3667 21.5283 10.2365 21.3117 10.1157L21.0433 9.96156L20.8975 9.89656C20.8 9.83748 20.6996 9.78325 20.5967 9.73406C20.4655 9.66063 20.3298 9.59551 20.1904 9.53906C20.0732 9.49086 19.9541 9.44749 19.8333 9.40906C19.7196 9.37656 19.6383 9.36822 19.5975 9.39239C19.5246 9.43322 19.4675 9.57989 19.4433 9.82322C19.4108 10.0586 19.4025 10.2941 19.4108 10.5382V10.8711C19.4271 11.7645 19.5083 12.3416 19.6546 12.5932ZM11.4746 16.2974C11.5804 16.3057 11.7508 16.2566 11.9863 16.1511C12.2041 16.0537 12.4181 15.9481 12.6279 15.8345L12.8963 15.6636C13.7088 15.217 14.1879 14.8757 14.3338 14.6157C14.4071 14.502 14.4638 14.2991 14.5046 14.0149C14.5441 13.7595 14.5658 13.5016 14.5696 13.2432L14.5858 12.8936C14.61 12.0003 14.545 11.5049 14.3988 11.4236C14.3338 11.3828 14.1796 11.407 13.9442 11.5049C13.7146 11.5939 13.4919 11.6997 13.2779 11.8216L12.9613 11.9924C12.2546 12.3578 11.7833 12.6907 11.5396 12.9749C11.2958 13.2349 11.1742 13.8524 11.1742 14.8107V15.0624C11.1742 15.1761 11.1825 15.3386 11.1904 15.5499C11.1988 15.7611 11.2308 15.9399 11.2796 16.0778C11.3283 16.2241 11.3933 16.2974 11.4746 16.2974ZM11.9946 17.3207C11.9946 17.3857 12.1083 17.4916 12.3279 17.6374C12.5397 17.7778 12.7563 17.9107 12.9775 18.0357L13.2942 18.1899C14.1471 18.6203 14.7317 18.8399 15.0488 18.8399C15.1867 18.8399 15.3979 18.7828 15.6821 18.6774C15.9362 18.5809 16.1857 18.4724 16.4296 18.3524L16.7463 18.1982C17.5017 17.8324 17.9404 17.5482 18.0463 17.3449C18.0704 17.3207 18.0704 17.2966 18.0546 17.2557C18.0363 17.2118 18.0115 17.1708 17.9813 17.1341C17.9421 17.0868 17.8986 17.0432 17.8513 17.0041C17.7942 16.9632 17.7454 16.9228 17.6888 16.882C17.6317 16.8416 17.5667 16.8007 17.4938 16.752L17.2988 16.6303C17.2338 16.5978 17.1771 16.5653 17.1121 16.5328C17.055 16.5082 16.9983 16.4841 16.9496 16.4516L16.8358 16.4028C16.8033 16.3786 16.7871 16.3624 16.7871 16.3541C15.9017 15.8911 15.2679 15.6882 14.8863 15.7366C14.7154 15.7691 14.4963 15.8424 14.22 15.9478C13.9442 16.0616 13.7167 16.1674 13.5217 16.2728L13.2538 16.4191C13.2292 16.4353 13.205 16.4436 13.1804 16.4599C13.1246 16.4941 13.0676 16.5265 13.0096 16.557C12.9204 16.6057 12.8392 16.6545 12.7579 16.7032C12.6767 16.752 12.5954 16.8007 12.4983 16.8574C12.414 16.9068 12.3326 16.961 12.2546 17.0199C12.1921 17.065 12.1348 17.1168 12.0838 17.1745C12.0188 17.2478 11.9946 17.2882 11.9946 17.3207ZM11.2554 10.4895C11.2308 11.4803 11.3367 11.9757 11.5558 11.9757C11.6617 11.9841 11.84 11.927 12.1 11.8132C12.2921 11.7235 12.4817 11.6288 12.6688 11.5291C12.7663 11.4724 12.8717 11.4153 12.9771 11.3666L13.2942 11.1799C13.523 11.0441 13.7453 10.8977 13.9604 10.7411C14.2038 10.5703 14.3583 10.4245 14.415 10.3024C14.5692 10.0507 14.6588 9.47406 14.6671 8.58031V8.24739C14.6754 8.01197 14.6588 7.76822 14.6346 7.52447C14.61 7.28072 14.5613 7.13447 14.4883 7.10197C14.4475 7.07781 14.3663 7.08572 14.2525 7.11864C14.1302 7.15232 14.0108 7.19565 13.8954 7.24822C13.7733 7.30531 13.6433 7.36197 13.4892 7.43531C13.3429 7.50822 13.2375 7.56531 13.1808 7.58947C13.133 7.6135 13.0868 7.64064 13.0425 7.67072L12.7742 7.82489C12.5526 7.94178 12.3383 8.07202 12.1325 8.21489C11.8971 8.37739 11.7267 8.52322 11.6208 8.65364C11.3771 8.91364 11.2554 9.53072 11.2554 10.4895Z" fill="white"/>
<defs>
<linearGradient id="paint0_linear_11272_29749" x1="5" y1="2.16422e-07" x2="27.1429" y2="30" gradientUnits="userSpaceOnUse">
<stop offset="0.176128" stop-color="#5192DC"/>
<stop offset="1" stop-color="#88CDF6"/>
</linearGradient>
</defs>
</svg>
