<svg width="20" height="20" viewBox="0 0 20 20" fill="none" xmlns="http://www.w3.org/2000/svg">
<g clip-path="url(#clip0_11914_44040)">
<path d="M20 5.00012V18.3331C20 18.7752 19.8244 19.1992 19.5118 19.5118C19.1992 19.8244 18.7752 20 18.3331 20H4.66687C4.22479 20 3.80081 19.8244 3.48821 19.5118C3.17562 19.1992 3 18.7752 3 18.3331V1.66638C3.00013 1.22439 3.1758 0.800536 3.48839 0.488043C3.80097 0.175549 4.22487 -1.87949e-08 4.66687 0L15.0086 0" fill="#0A6D8C"/>
<path d="M11.6595 5.43198C12.1164 5.93753 11.5331 6.41392 11.5331 6.41392C11.5331 6.41392 12.6706 5.83059 12.1553 5.0917C11.6692 4.41115 11.29 4.07087 13.322 2.88477C13.322 2.89449 10.1331 3.70143 11.6595 5.43198Z" fill="white"/>
<path d="M12.1554 1C12.1554 1 13.1179 1.9625 11.2415 3.44999C9.74431 4.64582 10.9013 5.32637 11.2415 6.11387C10.3568 5.31665 9.72487 4.61665 10.1526 3.96527C10.7651 3.00277 12.5443 2.53611 12.1554 1ZM13.2054 8.14581C14.9457 7.24165 14.1387 6.35693 13.5846 6.48331C13.4387 6.51248 13.3804 6.53192 13.3804 6.53192C13.3804 6.53192 13.429 6.45415 13.536 6.42498C14.654 6.03609 15.5096 7.5722 13.1762 8.19442C13.1665 8.19442 13.1957 8.16525 13.2054 8.14581ZM9.99709 8.51525C9.99709 8.51525 9.63737 8.71942 10.2499 8.7972C10.979 8.87497 11.3679 8.87497 12.1749 8.71942C12.1749 8.71942 12.3985 8.86525 12.6804 8.97219C10.8624 9.74025 8.56793 8.92358 9.99709 8.51525ZM9.77348 7.50414C9.77348 7.50414 9.36515 7.80553 9.99709 7.86386C10.7846 7.94164 11.4165 7.96109 12.4762 7.73748C12.4762 7.73748 12.6318 7.89303 12.8651 7.97081C10.6679 8.62219 8.20821 8.01942 9.77348 7.50414Z" fill="white"/>
<path d="M14.0609 9.27063C14.0609 9.27063 14.3234 9.49425 13.7595 9.65952C12.6998 9.99008 9.38453 10.0873 8.46092 9.67897C8.13037 9.53313 8.76231 9.33869 8.94703 9.29008C9.1512 9.24147 9.27758 9.26091 9.27758 9.26091C8.90814 8.98869 6.88593 9.75674 8.25675 9.98035C11.9609 10.5734 15.0234 9.70813 14.0609 9.27063ZM10.1623 6.44148C10.1623 6.44148 8.47064 6.84981 9.55953 6.9762C10.0262 7.03453 10.9498 7.02481 11.7956 6.94703C12.4956 6.8887 13.1956 6.76231 13.1956 6.76231C13.1956 6.76231 12.9428 6.86925 12.7678 6.99564C11.047 7.45259 7.73176 7.24842 8.68453 6.77203C9.52064 6.39287 10.1623 6.44148 10.1623 6.44148Z" fill="white"/>
<path d="M10.3373 10.5958C12.0095 10.7027 14.5762 10.5375 14.6442 9.74023C14.6442 9.74023 14.5178 10.0416 13.254 10.275C11.8248 10.5375 10.0553 10.5083 9.01508 10.3333C9.03452 10.343 9.24841 10.5277 10.3373 10.5958Z" fill="white"/>
<path d="M15 0L20.0001 5.00012H16.3334C15.9798 5.00012 15.6406 4.85964 15.3905 4.60958C15.1405 4.35952 15 4.02036 15 3.66672V0Z" fill="#389AB8"/>
<path d="M0.683974 12H13.316C13.772 12 14 12.2087 14 12.6252V17.3748C14 17.7917 13.772 18 13.316 18H0.683974C0.227991 18 0 17.7917 0 17.3748V12.6252C0 12.2087 0.227991 12 0.683974 12Z" fill="#DF9036"/>
<path d="M10.825 15.6451L11.5298 15.601C11.5451 15.7155 11.5762 15.8027 11.623 15.8626C11.6994 15.9597 11.8084 16.0082 11.9501 16.0082C12.0559 16.0082 12.1371 15.9836 12.1938 15.9346C12.2516 15.8844 12.2804 15.8267 12.2804 15.7612C12.2804 15.6991 12.2532 15.6435 12.1987 15.5944C12.1442 15.5454 12.0177 15.499 11.8193 15.4554C11.4944 15.3824 11.2627 15.2854 11.1243 15.1643C10.9847 15.0433 10.915 14.8891 10.915 14.7016C10.915 14.5784 10.9504 14.4623 11.0213 14.3532C11.0932 14.2431 11.2006 14.157 11.3434 14.0948C11.4873 14.0316 11.6841 14 11.9338 14C12.2401 14 12.4734 14.0572 12.6337 14.1717C12.795 14.2851 12.891 14.4661 12.9215 14.7146L12.2232 14.7555C12.2047 14.6476 12.1654 14.5691 12.1055 14.52C12.0466 14.471 11.9648 14.4464 11.8602 14.4464C11.774 14.4464 11.7092 14.465 11.6656 14.502C11.622 14.538 11.6002 14.5822 11.6002 14.6345C11.6002 14.6727 11.6181 14.707 11.6541 14.7375C11.689 14.7691 11.7719 14.7986 11.9027 14.8258C12.2265 14.8956 12.4582 14.9665 12.5977 15.0384C12.7383 15.1093 12.8403 15.1976 12.9035 15.3033C12.9678 15.4091 13 15.5274 13 15.6582C13 15.8119 12.9575 15.9537 12.8724 16.0834C12.7874 16.2131 12.6686 16.3118 12.5159 16.3794C12.3633 16.4459 12.1709 16.4791 11.9387 16.4791C11.5309 16.4791 11.2486 16.4006 11.0916 16.2437C10.9346 16.0867 10.8457 15.8872 10.825 15.6451Z" fill="white"/>
<path d="M8.40472 15.6451L9.10955 15.601C9.12481 15.7155 9.15588 15.8027 9.20276 15.8626C9.27908 15.9597 9.3881 16.0082 9.52982 16.0082C9.63557 16.0082 9.7168 15.9836 9.77349 15.9346C9.83127 15.8844 9.86016 15.8267 9.86016 15.7612C9.86016 15.6991 9.8329 15.6435 9.77839 15.5944C9.72388 15.5454 9.59742 15.499 9.399 15.4554C9.07411 15.3824 8.84244 15.2854 8.70399 15.1643C8.56444 15.0433 8.49467 14.8891 8.49467 14.7016C8.49467 14.5784 8.5301 14.4623 8.60096 14.3532C8.67292 14.2431 8.7803 14.157 8.92312 14.0948C9.06703 14.0316 9.26381 14 9.51347 14C9.81982 14 10.0531 14.0572 10.2134 14.1717C10.3747 14.2851 10.4707 14.4661 10.5012 14.7146L9.80292 14.7555C9.78439 14.6476 9.74514 14.5691 9.68518 14.52C9.62631 14.471 9.54454 14.4464 9.43988 14.4464C9.35375 14.4464 9.28889 14.465 9.24528 14.502C9.20167 14.538 9.17987 14.5822 9.17987 14.6345C9.17987 14.6727 9.19785 14.707 9.23383 14.7375C9.26872 14.7691 9.35157 14.7986 9.4824 14.8258C9.80619 14.8956 10.0379 14.9665 10.1774 15.0384C10.318 15.1093 10.42 15.1976 10.4832 15.3033C10.5475 15.4091 10.5797 15.5274 10.5797 15.6582C10.5797 15.8119 10.5372 15.9537 10.4521 16.0834C10.3671 16.2131 10.2483 16.3118 10.0956 16.3794C9.94301 16.4459 9.75059 16.4791 9.51838 16.4791C9.11064 16.4791 8.82827 16.4006 8.67128 16.2437C8.51429 16.0867 8.42544 15.8872 8.40472 15.6451Z" fill="white"/>
<path d="M7.40227 16.0426H6.55844L6.44233 16.4384H5.68518L6.58624 14.041H7.39409L8.29515 16.4384H7.52001L7.40227 16.0426ZM7.24691 15.5243L6.98199 14.6624L6.7187 15.5243H7.24691Z" fill="white"/>
<path d="M3.69342 14.041H4.43422V15.848H5.59039V16.4384H3.69342V14.041Z" fill="white"/>
<path d="M2.68274 15.4587L3.33197 15.6549C3.28836 15.837 3.21967 15.9891 3.12592 16.1112C3.03216 16.2333 2.9155 16.3254 2.77596 16.3876C2.6375 16.4497 2.46089 16.4808 2.24611 16.4808C1.98555 16.4808 1.77242 16.4432 1.6067 16.3679C1.44208 16.2916 1.29981 16.1581 1.17989 15.9673C1.05996 15.7765 1 15.5323 1 15.2347C1 14.8378 1.10521 14.5331 1.31562 14.3205C1.52712 14.1068 1.82584 14 2.21177 14C2.51376 14 2.75088 14.0611 2.92314 14.1832C3.09648 14.3053 3.22512 14.4928 3.30907 14.7457L2.65494 14.8912C2.63205 14.8182 2.60806 14.7648 2.58299 14.731C2.54156 14.6743 2.49087 14.6307 2.4309 14.6002C2.37094 14.5696 2.30389 14.5544 2.22976 14.5544C2.06187 14.5544 1.93322 14.622 1.84382 14.7572C1.77623 14.8575 1.74244 15.015 1.74244 15.2298C1.74244 15.4958 1.78277 15.6784 1.86345 15.7776C1.94412 15.8757 2.05751 15.9248 2.2036 15.9248C2.34532 15.9248 2.45216 15.885 2.52412 15.8054C2.59716 15.7258 2.65004 15.6102 2.68274 15.4587Z" fill="white"/>
</g>
<defs>
<clipPath id="clip0_11914_44040">
<rect width="20" height="20" fill="white"/>
</clipPath>
</defs>
</svg>
