<svg width="20" height="20" viewBox="0 0 20 20" fill="none" xmlns="http://www.w3.org/2000/svg">
<g clip-path="url(#clip0_11914_44302)">
<path d="M17.8602 0C19.0409 0 20 0.960049 20 2.14188V17.8581C20 19.043 19.0439 20 17.8602 20H5.01707C3.83337 20 2.87731 19.043 2.87579 17.8596V15.7178H1.44928C1.26169 15.718 1.0759 15.6811 0.902556 15.6094C0.729209 15.5376 0.571705 15.4323 0.439061 15.2995C0.306416 15.1668 0.201236 15.0091 0.129542 14.8356C0.057847 14.6621 0.0210463 14.4761 0.0212459 14.2883L0.0197284 13.0503L0 13.0518V6.97554H0.0197284V5.71472C0.0227635 4.92481 0.660141 4.2868 1.44776 4.2868H2.87427V2.14188C2.87731 0.957011 3.83489 -2.07685e-08 5.01707 0H17.8602ZM17.8602 1.43552H5.01859C4.82942 1.43552 4.648 1.51074 4.51424 1.64463C4.38048 1.77852 4.30534 1.96012 4.30534 2.14948V4.29136H10.0129C10.802 4.29136 11.4394 4.93088 11.4394 5.71928H16.4352C16.6244 5.71928 16.8058 5.7945 16.9396 5.92839C17.0733 6.06229 17.1485 6.24388 17.1485 6.43324C17.1485 6.62259 17.0733 6.80419 16.9396 6.93808C16.8058 7.07198 16.6244 7.1472 16.4352 7.1472H11.5335V8.57512H16.4352C16.6024 8.57492 16.7644 8.63352 16.8928 8.7407C17.0213 8.84787 17.108 8.9968 17.1379 9.16148L17.15 9.2906C17.15 9.68555 16.8313 10.0046 16.4368 10.0046H11.5335V11.4325H16.4352C16.6022 11.4322 16.764 11.4906 16.8924 11.5975C17.0208 11.7043 17.1077 11.8529 17.1379 12.0173L17.1485 12.1464C17.1485 12.5414 16.8298 12.8604 16.4352 12.8604H11.5335V14.5709C11.468 14.894 11.293 15.1846 11.038 15.3933C10.783 15.6021 10.4637 15.7162 10.1343 15.7162L4.30382 15.7162V17.8596C4.30382 18.2546 4.62251 18.5736 5.01707 18.5736H17.8617C18.2563 18.5736 18.575 18.2546 18.575 17.8596V2.151C18.575 1.96164 18.4999 1.78004 18.3661 1.64615C18.2323 1.51226 18.0509 1.43703 17.8617 1.43703L17.8602 1.43552Z" fill="#00B2FF"/>
<path d="M2.28686 8.0566V9.99326C2.28686 10.1995 2.25239 10.3491 2.18345 10.442C2.11452 10.535 2.00345 10.5836 1.85408 10.5836C1.58215 10.5836 1.4481 10.4178 1.4481 10.0863V9.99731H1V10.0903C1 10.3733 1.07277 10.5957 1.21831 10.7574C1.36002 10.9191 1.57066 11 1.84642 11C2.1643 11 2.3941 10.9151 2.53964 10.7453C2.66986 10.5836 2.73497 10.341 2.73497 10.0094V8.0566H2.28686ZM4.23631 8C3.9414 8 3.70011 8.06873 3.50862 8.21024C3.3018 8.35579 3.20222 8.55795 3.20222 8.81267C3.20222 9.06739 3.30563 9.26146 3.51628 9.39488C3.59671 9.4434 3.80735 9.52426 4.14439 9.63747C4.44696 9.7345 4.62313 9.79919 4.67675 9.82749C4.84527 9.91644 4.93336 10.0377 4.93336 10.1914C4.93336 10.3127 4.87208 10.4057 4.75718 10.4784C4.64228 10.5472 4.48143 10.5836 4.28227 10.5836C4.0563 10.5836 3.89161 10.5391 3.78437 10.4582C3.66565 10.3652 3.59288 10.2075 3.56224 9.98922H3.11796C3.13711 10.3571 3.2635 10.624 3.4933 10.7938C3.68097 10.9313 3.94523 11 4.28227 11C4.63079 11 4.90272 10.9232 5.09422 10.7776C5.28571 10.628 5.38146 10.4218 5.38146 10.1631C5.38146 9.89623 5.26273 9.69003 5.02528 9.54043C4.91804 9.47574 4.68058 9.37871 4.30908 9.25741C4.0563 9.17251 3.89927 9.11186 3.84182 9.07952C3.71161 9.00674 3.65033 8.90566 3.65033 8.78437C3.65033 8.6469 3.70395 8.54582 3.81884 8.48518C3.91076 8.43261 4.04098 8.40836 4.21333 8.40836C4.41249 8.40836 4.56568 8.44474 4.66526 8.52561C4.76484 8.60243 4.83761 8.73181 4.87591 8.9097H5.32018C5.29337 8.59434 5.18231 8.35984 4.99081 8.21024C4.8108 8.06873 4.55802 8 4.23631 8ZM6.97855 8C6.55726 8 6.22788 8.14151 5.99043 8.43261C5.76063 8.70755 5.64956 9.06334 5.64956 9.50404C5.64956 9.9407 5.76063 10.2965 5.99043 10.5714C6.22788 10.8544 6.55726 11 6.97855 11C7.39602 11 7.72539 10.8585 7.96668 10.5755C8.19648 10.3046 8.31138 9.94879 8.31138 9.50404C8.31138 9.0593 8.19648 8.69946 7.96668 8.42857C7.72539 8.14151 7.39602 8 6.97855 8ZM6.97855 8.41644C7.26197 8.41644 7.48028 8.50943 7.63347 8.7035C7.78284 8.89757 7.85944 9.16442 7.85944 9.50404C7.85944 9.84367 7.78284 10.1065 7.63347 10.2965C7.48028 10.4865 7.26197 10.5836 6.97855 10.5836C6.69514 10.5836 6.473 10.4825 6.3198 10.2844C6.17043 10.0903 6.09766 9.83154 6.09766 9.50404C6.09766 9.17251 6.17043 8.91375 6.3198 8.71968C6.47683 8.51752 6.69514 8.41644 6.97855 8.41644ZM8.73267 8.0566V10.9434H9.18077V8.83288H9.19609L10.5634 10.9434H11V8.0566H10.5481V10.1388H10.5327L9.18077 8.0566H8.73267Z" fill="white"/>
</g>
<defs>
<clipPath id="clip0_11914_44302">
<rect width="20" height="20" fill="white"/>
</clipPath>
</defs>
</svg>
