<svg width="26" height="26" viewBox="0 0 26 26" fill="none" xmlns="http://www.w3.org/2000/svg">
<rect width="26" height="26" rx="6" fill="#005FEF"/>
<g clip-path="url(#clip0_13238_30764)">
<mask id="mask0_13238_30764" style="mask-type:luminance" maskUnits="userSpaceOnUse" x="4" y="4" width="18" height="18">
<path d="M21.9993 4H4.00195V22H21.9993V4Z" fill="white"/>
</mask>
<g mask="url(#mask0_13238_30764)">
<path d="M21.0243 9.93441C21.0251 10.3713 20.9604 10.8058 20.8317 11.2236C20.8003 11.3225 20.8093 11.3889 20.8811 11.4707C21.4315 12.1002 21.7919 12.8726 21.9206 13.6986C21.9638 13.9394 21.9845 14.1837 21.9836 14.4289C21.9717 15.3503 21.6802 16.2462 21.1474 16.9983C20.7081 17.627 20.1152 18.133 19.4246 18.4679C19.1107 18.6241 18.7783 18.7405 18.4356 18.8147C18.3623 18.8247 18.302 18.8778 18.2829 18.9493C17.79 20.2707 16.8801 21.1862 15.5494 21.6956C15.1156 21.8593 14.6583 21.9527 14.1951 21.9722C13.0082 22.0297 11.9527 21.691 11.03 20.9543C10.8808 20.8296 10.7383 20.6971 10.6031 20.5574C10.5546 20.5004 10.4777 20.476 10.4053 20.4944C9.31733 20.6859 8.27964 20.5374 7.31659 19.9968C6.06048 19.2917 5.30423 18.2207 5.02565 16.8294C4.89284 16.1427 4.93324 15.4339 5.14332 14.7669L5.16308 14.704C5.18393 14.655 5.17164 14.598 5.13256 14.5621C4.47114 13.8179 4.07688 12.8755 4.01102 11.8828C3.95263 11.0622 4.12715 10.2417 4.5146 9.51573C4.96441 8.63538 5.69322 7.92851 6.58712 7.50523C6.89182 7.3574 7.21298 7.24643 7.5438 7.17471C7.61844 7.16484 7.67859 7.11177 7.69747 7.04005C7.9396 6.34283 8.35362 5.71799 8.90155 5.22277C10.3539 3.90641 12.4743 3.63599 14.2111 4.54529C14.6392 4.76812 15.024 5.06003 15.3514 5.41028C15.4277 5.49209 15.4997 5.50898 15.6084 5.49121C16.488 5.33001 17.3958 5.42915 18.2196 5.77677C18.8077 6.0189 19.3372 6.38406 19.7725 6.84749C20.5683 7.67937 21.0161 8.78342 21.0243 9.93419V9.93441ZM14.2175 5.96122C14.1879 5.93248 14.1681 5.91077 14.1457 5.89301C13.4459 5.34734 12.5608 5.096 11.6785 5.19228C10.9758 5.25501 10.312 5.54166 9.78491 6.00969C9.02317 6.67532 8.62232 7.51531 8.61332 8.51958C8.60168 9.88945 8.61156 11.2595 8.60871 12.6303C8.60058 12.7084 8.64471 12.7829 8.71671 12.8154C9.1753 13.0722 9.63015 13.3336 10.087 13.5933C10.114 13.6093 10.1445 13.6203 10.1877 13.64V8.62376C10.1877 8.37856 10.2911 8.19871 10.506 8.0759L14.0972 6.03315L14.2177 5.96034V5.96122H14.2175ZM7.42614 8.429C7.38662 8.44062 7.3594 8.44698 7.33174 8.45773C6.94121 8.60621 6.58361 8.82992 6.27957 9.11635C5.45241 9.90239 5.08097 10.8599 5.21686 11.9855C5.35165 13.0887 5.91736 13.9348 6.88655 14.5C8.08339 15.1961 9.29274 15.8727 10.4948 16.5598C10.5539 16.6002 10.6318 16.5995 10.69 16.5581C11.1422 16.2975 11.5955 16.0407 12.0495 15.7828C12.0829 15.7648 12.1116 15.7442 12.1503 15.7181C12.1169 15.6948 12.0928 15.6769 12.0675 15.6624L8.94567 13.8837L7.72293 13.1876C7.60176 13.1246 7.51021 13.0165 7.4685 12.8867C7.44128 12.7946 7.42723 12.6989 7.42723 12.6029C7.4246 11.2696 7.4246 9.9366 7.42723 8.60336V8.42922H7.42636L7.42614 8.429ZM19.7851 10.5222C19.8608 10.1287 19.8586 9.7243 19.7787 9.33194C19.5359 8.17569 18.8732 7.33218 17.7718 6.86328C16.7027 6.40775 15.6497 6.49416 14.6381 7.06988C13.458 7.74297 12.2769 8.41496 11.0955 9.08564C11.0404 9.10977 11.0061 9.16569 11.0101 9.22579C11.0136 9.76115 11.0118 10.2948 11.0118 10.8301C11.0118 10.8553 11.0162 10.8795 11.0208 10.92L11.216 10.8095L14.3578 9.02182L15.4242 8.41453C15.5377 8.3461 15.6697 8.31473 15.8018 8.32482C15.9067 8.33732 16.0075 8.37329 16.0966 8.42988C16.7126 8.7821 17.3284 9.13324 17.9455 9.48371L19.7069 10.4862C19.7324 10.4998 19.7583 10.5117 19.7853 10.5222H19.7851ZM6.18078 15.4503C6.16629 15.6407 6.14939 15.8023 6.14478 15.965C6.1202 16.5706 6.27342 17.17 6.58536 17.69C7.30913 18.8866 8.3927 19.4489 9.79808 19.3967C10.3484 19.3779 10.859 19.1974 11.3347 18.9223C11.8508 18.6241 12.3707 18.3304 12.8894 18.0356C13.551 17.6582 14.2136 17.2816 14.8765 16.9064C14.9373 16.8781 14.9736 16.814 14.9663 16.7474C14.9637 16.2273 14.9654 15.7071 14.9646 15.1878C14.9646 15.1518 14.9608 15.1176 14.9582 15.0711C14.916 15.0926 14.8862 15.1062 14.8574 15.1222C14.3909 15.3869 13.9247 15.6525 13.4593 15.919L11.4632 17.0555L10.5333 17.5845C10.3489 17.697 10.117 17.697 9.93265 17.5845L9.84374 17.5352L6.57614 15.6747C6.45299 15.6027 6.32962 15.5345 6.18056 15.4501L6.18078 15.4503ZM13.8208 10.2678C13.8568 10.2912 13.874 10.3055 13.8928 10.3154C14.819 10.8444 15.7452 11.3718 16.6705 11.8982L18.2548 12.8003C18.3887 12.8722 18.4868 12.9961 18.5246 13.1415C18.5445 13.2132 18.5542 13.2871 18.5533 13.3615C18.5551 14.7235 18.5551 16.0861 18.5533 17.449V17.5639C18.6172 17.5404 18.6701 17.5224 18.7215 17.5009C19.1225 17.3347 19.4858 17.0921 19.7897 16.7857C20.4981 16.0705 20.8471 15.2137 20.7823 14.2138C20.7042 13.0244 20.135 12.1171 19.1054 11.4946C18.7654 11.2889 18.4159 11.0975 18.0695 10.9027L15.4791 9.42493C15.4229 9.38699 15.3489 9.38808 15.2938 9.42756C14.9854 9.60718 14.6743 9.78154 14.365 9.95656L13.8211 10.2673L13.8208 10.2678ZM15.7919 12.3474V17.3448C15.7919 17.5937 15.6984 17.7832 15.4771 17.9071L13.6663 18.9375L11.8473 19.9742C11.8203 19.9896 11.7951 20.0102 11.7602 20.0343C11.8014 20.0676 11.8322 20.0955 11.8644 20.1196C12.8624 20.8355 13.9506 21.0116 15.1149 20.6056C16.4444 20.1435 17.3431 18.9009 17.3646 17.4946C17.3718 16.1094 17.3646 14.7241 17.3672 13.3398C17.3738 13.2722 17.3372 13.2078 17.2755 13.179C16.8105 12.9185 16.3493 12.6535 15.8855 12.3895C15.8648 12.377 15.8404 12.3697 15.7919 12.3474ZM11.012 14.1214L12.9902 15.247L14.9575 14.1267C14.9608 14.1157 14.9632 14.1048 14.9648 14.0934C14.9648 13.3738 14.9648 12.6533 14.9674 11.9329C14.9674 11.8736 14.9376 11.8493 14.8919 11.8232C14.3141 11.4957 13.737 11.1676 13.1601 10.8387L12.9893 10.7444L12.9201 10.7821L11.0895 11.8206C11.0353 11.846 11.0035 11.9032 11.0103 11.9625C11.0129 12.4708 11.0103 12.9794 11.0103 13.4887L11.0112 14.1212H11.012V14.1214Z" fill="white"/>
</g>
</g>
<defs>
<clipPath id="clip0_13238_30764">
<rect width="18" height="18" fill="white" transform="translate(4 4)"/>
</clipPath>
</defs>
</svg>
